# Blender v2.79 (sub 0) OBJ File: 'room_001.blend'
# www.blender.org
mtllib bench.mtl
o Cylinder
v -3.679830 -0.766075 -0.000002
v -3.679830 0.054073 -0.000002
v -3.636829 -0.766075 -0.436585
v -3.636829 0.054073 -0.436585
v -3.509482 -0.766075 -0.856389
v -3.509482 0.054073 -0.856389
v -3.302683 -0.766075 -1.243283
v -3.302683 0.054073 -1.243283
v -3.024377 -0.766075 -1.582398
v -3.024377 0.054073 -1.582398
v -2.685261 -0.766075 -1.860703
v -2.685261 0.054073 -1.860703
v -2.298367 -0.766075 -2.067502
v -2.298367 0.054073 -2.067502
v -1.878562 -0.766075 -2.194847
v -1.878562 0.054073 -2.194847
v -2.935072 -0.054073 -0.000002
v -2.935072 0.054073 -0.000002
v -2.906374 -0.054073 -0.291294
v -2.906374 0.054073 -0.291294
v -2.821414 -0.054073 -0.571383
v -2.821414 0.054073 -0.571383
v -2.683439 -0.054073 -0.829515
v -2.683439 0.054073 -0.829515
v -2.497756 -0.054073 -1.055776
v -2.497756 0.054073 -1.055776
v -2.271494 -0.054073 -1.241459
v -2.271494 0.054073 -1.241459
v -2.013361 -0.054073 -1.399899
v -2.013361 0.054073 -1.399899
v -1.733272 -0.054073 -1.400207
v -1.733272 0.054073 -1.400207
v -3.683381 0.055120 6.354604
v -3.683381 -0.767122 6.354604
v -3.683381 0.055120 0.000000
v -3.683381 -0.767122 0.000000
v -2.937085 0.055120 6.354604
v -2.937085 -0.055120 6.354604
v -2.937085 0.055120 0.000000
v -2.937085 -0.055120 0.000000
v -3.683381 0.055120 6.650821
v -3.683381 -0.767122 6.650821
v -2.937085 -0.767122 6.650821
v -2.937085 0.055120 6.650821
v -3.683381 1.243624 6.354604
v -3.683381 1.243624 0.000000
v -3.683381 1.243624 6.650821
v -2.937085 1.243624 6.650821
v 0.000000 -0.766075 -2.237846
v 0.000000 0.054073 -2.237846
v 3.679830 -0.766075 -0.000002
v 3.679830 0.054073 -0.000002
v 3.636829 -0.766075 -0.436585
v 3.636829 0.054073 -0.436585
v 3.509482 -0.766075 -0.856389
v 3.509482 0.054073 -0.856389
v 3.302683 -0.766075 -1.243283
v 3.302683 0.054073 -1.243283
v 3.024377 -0.766075 -1.582398
v 3.024377 0.054073 -1.582398
v 2.685261 -0.766075 -1.860703
v 2.685261 0.054073 -1.860703
v 2.298367 -0.766075 -2.067502
v 2.298367 0.054073 -2.067502
v 1.878562 -0.766075 -2.194847
v 1.878562 0.054073 -2.194847
v 0.000000 -0.054073 -1.399509
v 0.000000 0.054073 -1.399509
v 2.935072 -0.054073 -0.000002
v 2.935072 0.054073 -0.000002
v 2.906374 -0.054073 -0.291294
v 2.906374 0.054073 -0.291294
v 2.821414 -0.054073 -0.571383
v 2.821414 0.054073 -0.571383
v 2.683439 -0.054073 -0.829515
v 2.683439 0.054073 -0.829515
v 2.497756 -0.054073 -1.055776
v 2.497756 0.054073 -1.055776
v 2.271494 -0.054073 -1.241459
v 2.271494 0.054073 -1.241459
v 2.013361 -0.054073 -1.399899
v 2.013361 0.054073 -1.399899
v 1.733272 -0.054073 -1.400207
v 1.733272 0.054073 -1.400207
v 3.683381 0.055120 6.354604
v 3.683381 -0.767122 6.354604
v 3.683381 0.055120 0.000000
v 3.683381 -0.767122 0.000000
v 2.937085 0.055120 6.354604
v 2.937085 -0.055120 6.354604
v 2.937085 0.055120 0.000000
v 2.937085 -0.055120 0.000000
v 3.683381 0.055120 6.650821
v 3.683381 -0.767122 6.650821
v 2.937085 -0.767122 6.650821
v 2.937085 0.055120 6.650821
v 0.000000 -0.055120 6.354604
v 0.000000 0.055120 6.354604
v 0.000000 -0.767122 6.650821
v 0.000000 0.055120 6.650821
v 3.683381 1.243624 6.354604
v 3.683381 1.243624 0.000000
v 3.683381 1.243624 6.650821
v 2.937085 1.243624 6.650821
v 0.000000 1.243624 6.650821
vn -0.9952 0.0000 -0.0980
vn -0.9569 0.0000 -0.2903
vn -0.8819 0.0000 -0.4714
vn -0.7730 0.0000 -0.6344
vn -0.6344 0.0000 -0.7730
vn -0.4714 0.0000 -0.8819
vn -0.2903 0.0000 -0.9569
vn -0.0229 0.0000 -0.9997
vn -0.0000 0.0000 1.0000
vn 0.9952 0.0000 0.0980
vn 0.9569 0.0000 0.2903
vn 0.8819 0.0000 0.4714
vn 0.7730 0.0000 0.6344
vn 0.6344 0.0000 0.7730
vn 0.5231 0.0000 0.8523
vn 0.0011 0.0000 1.0000
vn -0.0004 0.0000 1.0000
vn 0.6894 -0.7212 0.0679
vn 0.0000 1.0000 0.0000
vn 0.6629 -0.7212 0.2011
vn 0.6110 -0.7212 0.3266
vn 0.5355 -0.7212 0.4395
vn 0.4395 -0.7212 0.5355
vn 0.3435 -0.7169 0.6067
vn 0.1229 -0.7288 0.6736
vn 0.0077 -0.7540 0.6568
vn -1.0000 0.0000 0.0000
vn -0.0000 0.0000 -1.0000
vn 1.0000 0.0000 0.0000
vn 0.6903 -0.7235 0.0000
vn 0.2918 -0.6118 -0.7352
vn 0.0000 -0.3841 -0.9233
vn 0.9952 0.0000 -0.0980
vn 0.9569 0.0000 -0.2903
vn 0.8819 0.0000 -0.4714
vn 0.7730 0.0000 -0.6344
vn 0.6344 0.0000 -0.7730
vn 0.4714 0.0000 -0.8819
vn 0.2903 0.0000 -0.9569
vn 0.0229 0.0000 -0.9997
vn -0.9952 0.0000 0.0980
vn -0.9569 0.0000 0.2903
vn -0.8819 0.0000 0.4714
vn -0.7730 0.0000 0.6344
vn -0.6344 0.0000 0.7730
vn -0.5231 0.0000 0.8523
vn -0.0011 0.0000 1.0000
vn 0.0004 0.0000 1.0000
vn -0.6894 -0.7212 0.0679
vn -0.6629 -0.7212 0.2011
vn -0.6110 -0.7212 0.3266
vn -0.5355 -0.7212 0.4395
vn -0.4395 -0.7212 0.5355
vn -0.3435 -0.7169 0.6067
vn -0.1229 -0.7288 0.6736
vn -0.0077 -0.7540 0.6568
vn -0.6903 -0.7235 0.0000
vn -0.2918 -0.6118 -0.7352
usemtl None
s off
f 1//1 2//1 4//1 3//1
f 3//2 4//2 6//2 5//2
f 5//3 6//3 8//3 7//3
f 7//4 8//4 10//4 9//4
f 9//5 10//5 12//5 11//5
f 11//6 12//6 14//6 13//6
f 13//7 14//7 16//7 15//7
f 15//8 16//8 50//8 49//8
f 1//9 17//9 18//9 2//9
f 17//10 19//10 20//10 18//10
f 19//11 21//11 22//11 20//11
f 21//12 23//12 24//12 22//12
f 23//13 25//13 26//13 24//13
f 25//14 27//14 28//14 26//14
f 27//15 29//15 30//15 28//15
f 29//16 31//16 32//16 30//16
f 31//17 67//17 68//17 32//17
f 1//18 3//18 19//18 17//18
f 4//19 2//19 18//19 20//19
f 3//20 5//20 21//20 19//20
f 6//19 4//19 20//19 22//19
f 5//21 7//21 23//21 21//21
f 8//19 6//19 22//19 24//19
f 7//22 9//22 25//22 23//22
f 10//19 8//19 24//19 26//19
f 9//23 11//23 27//23 25//23
f 12//19 10//19 26//19 28//19
f 11//24 13//24 29//24 27//24
f 14//19 12//19 28//19 30//19
f 13//25 15//25 31//25 29//25
f 16//19 14//19 30//19 32//19
f 15//26 49//26 67//26 31//26
f 50//19 16//19 32//19 68//19
f 33//27 35//27 36//27 34//27
f 35//28 39//28 40//28 36//28
f 39//29 37//29 38//29 40//29
f 34//27 42//27 41//27 33//27
f 35//19 33//19 37//19 39//19
f 40//30 38//30 34//30 36//30
f 44//9 41//9 42//9 43//9
f 33//19 41//19 44//19 37//19
f 38//31 43//31 42//31 34//31
f 38//32 97//32 99//32 43//32
f 43//9 99//9 100//9 44//9
f 37//28 98//28 97//28 38//28
f 44//19 100//19 98//19 37//19
f 100//28 44//28 48//28 105//28
f 33//29 35//29 46//29 45//29
f 41//29 33//29 45//29 47//29
f 44//28 41//28 47//28 48//28
f 51//33 53//33 54//33 52//33
f 53//34 55//34 56//34 54//34
f 55//35 57//35 58//35 56//35
f 57//36 59//36 60//36 58//36
f 59//37 61//37 62//37 60//37
f 61//38 63//38 64//38 62//38
f 63//39 65//39 66//39 64//39
f 65//40 49//40 50//40 66//40
f 51//9 52//9 70//9 69//9
f 69//41 70//41 72//41 71//41
f 71//42 72//42 74//42 73//42
f 73//43 74//43 76//43 75//43
f 75//44 76//44 78//44 77//44
f 77//45 78//45 80//45 79//45
f 79//46 80//46 82//46 81//46
f 81//47 82//47 84//47 83//47
f 83//48 84//48 68//48 67//48
f 51//49 69//49 71//49 53//49
f 54//19 72//19 70//19 52//19
f 53//50 71//50 73//50 55//50
f 56//19 74//19 72//19 54//19
f 55//51 73//51 75//51 57//51
f 58//19 76//19 74//19 56//19
f 57//52 75//52 77//52 59//52
f 60//19 78//19 76//19 58//19
f 59//53 77//53 79//53 61//53
f 62//19 80//19 78//19 60//19
f 61//54 79//54 81//54 63//54
f 64//19 82//19 80//19 62//19
f 63//55 81//55 83//55 65//55
f 66//19 84//19 82//19 64//19
f 65//56 83//56 67//56 49//56
f 50//19 68//19 84//19 66//19
f 85//29 86//29 88//29 87//29
f 87//28 88//28 92//28 91//28
f 91//27 92//27 90//27 89//27
f 86//29 85//29 93//29 94//29
f 87//19 91//19 89//19 85//19
f 92//57 88//57 86//57 90//57
f 96//9 95//9 94//9 93//9
f 85//19 89//19 96//19 93//19
f 90//58 86//58 94//58 95//58
f 90//32 95//32 99//32 97//32
f 98//27 97//27 99//27 100//27
f 95//9 96//9 100//9 99//9
f 89//28 90//28 97//28 98//28
f 96//19 89//19 98//19 100//19
f 100//28 105//28 104//28 96//28
f 85//27 101//27 102//27 87//27
f 93//27 103//27 101//27 85//27
f 96//28 104//28 103//28 93//28
